<svg width="133" height="427" viewBox="0 0 133 427" fill="none" xmlns="http://www.w3.org/2000/svg">
<path d="M62.0138 71.2574C42.4358 71.2574 26.5647 55.3863 26.5647 35.8082C26.5647 16.2302 42.4358 0.359131 62.0138 0.359131C81.5918 0.359131 97.4629 16.2302 97.4629 35.8082C97.4629 55.3863 81.5918 71.2574 62.0138 71.2574Z" fill="#F2F2F2"/>
<path d="M67.3312 73.9161C47.7532 73.9161 31.882 58.0449 31.882 38.4669C31.882 18.8889 47.7532 3.01782 67.3312 3.01782C86.9092 3.01782 102.78 18.8889 102.78 38.4669C102.78 58.0449 86.9092 73.9161 67.3312 73.9161Z" fill="#F2F2F2"/>
<path d="M28.3378 426.586L61.5645 426.585V426.165C61.5642 422.735 60.2016 419.446 57.7763 417.02C55.351 414.595 52.0616 413.232 48.6317 413.232L42.5617 408.628L31.2378 413.233L28.3372 413.233L28.3378 426.586Z" fill="#F2F2F2"/>
<path d="M43.8051 408.641L72.1934 425.907L72.4117 425.548C74.194 422.617 74.7392 419.099 73.9275 415.766C73.1157 412.434 71.0135 409.56 68.0833 407.778L65.2901 400.689L53.2222 398.739L50.744 397.232L43.8051 408.641Z" fill="#F2F2F2"/>
<path d="M24.2865 314.5C24.4372 315.564 24.6588 319.18 24.9158 324.444C26.1654 349.967 28.3366 414.228 28.3366 414.228L41.8693 410.018C41.8693 410.018 57.9632 361.47 55.3045 334.884L57.2188 325.631L60.4978 309.821V309.812L70.4856 261.663C70.4856 261.663 72.6746 274.709 72.8518 277.766C73.0291 280.824 74.8015 281.71 75.6878 281.71C80.1278 281.71 78.763 280.921 78.116 285.308C77.6463 288.463 81.4926 306.551 83.6904 316.441C84.5412 320.287 85.1438 322.893 85.1438 322.893L81.3862 330.993L50.2353 398.169L62.0133 404.479L109.001 334.839L113.636 327.971L114.629 320.27L122.445 259.678C122.445 259.678 124.882 252.828 122.445 252.651C119.999 252.464 118.617 253.235 119.308 250.639C119.999 248.033 105.82 204.608 105.82 204.608L32.2626 220.56C32.2626 220.56 25.0133 234.97 27.8315 241.83C30.6585 248.689 25.5184 301.81 28.4518 304.167C31.3764 306.524 33.264 304.637 29.2228 308.687C28.6046 309.332 27.8751 309.86 27.0693 310.246C24.5702 311.381 23.5776 309.537 24.2865 314.5Z" fill="#F2F2F2"/>
<path d="M67.5615 60.5522C56.2769 60.5522 47.1289 51.4042 47.1289 40.1196C47.1289 28.835 56.2769 19.687 67.5615 19.687C78.8462 19.687 87.9941 28.835 87.9941 40.1196C87.9941 51.4042 78.8462 60.5522 67.5615 60.5522Z" fill="#A0616A"/>
<path d="M51.6392 57.7168L59.7393 59.2677C59.7393 59.2677 52.2064 47.1086 52.6495 41.5431C53.0926 35.9776 59.1544 33.9836 59.1544 33.9836C59.1544 33.9836 62.5132 34.7103 66.0493 35.118C66.4728 33.9255 67.0224 32.7817 67.6888 31.706C67.82 33.0948 68.4347 34.3933 69.4258 35.375C70.7217 35.4863 72.0267 35.3356 73.2632 34.9319C74.6634 34.2938 74.6369 33.186 74.176 32.1491C78.7399 32.5258 83.1937 33.7489 87.3099 35.7561C87.5137 33.0353 87.4096 30.3002 86.9997 27.6028C86.8047 27.5496 86.6098 27.4876 86.4148 27.4255C85.2069 27.0434 84.0425 26.5355 82.9408 25.9101C84.1669 25.7473 85.3125 25.2086 86.2198 24.368C85.4754 22.1879 84.2879 20.3003 82.4179 19.3786C80.6138 18.4962 78.6411 18.0119 76.6335 17.9584C74.6259 17.9049 72.6303 18.2834 70.7817 19.0684C70.7817 19.0684 75.1153 15.9046 73.5202 14.6107C73.4138 14.717 73.3075 14.8145 73.1923 14.912C73.0416 15.036 72.8732 15.169 72.7137 15.2931C71.73 16.0907 70.2589 14.9652 70.0639 13.7599C70.0429 13.6077 70.0133 13.4568 69.9752 13.3079C69.9487 13.1838 69.9132 13.0598 69.8778 12.9446C69.8477 12.8423 69.8122 12.7417 69.7714 12.6432C66.8203 11.9343 57.896 14.8145 54.4663 21.1599C54.4663 21.1599 30.4938 32.6809 51.6392 57.7168Z" fill="#3F3D56"/>
<path d="M59.0403 239.89C59.3359 237.849 58.8232 235.773 57.6116 234.104C56.3999 232.435 54.5848 231.305 52.5526 230.953C52.1383 230.889 51.7194 230.858 51.3002 230.862L29.9359 181.25L15.28 192.253L43.8152 239.253C43.9674 240.99 44.6904 242.628 45.8713 243.911C47.0522 245.194 48.6246 246.05 50.3432 246.345C51.3226 246.504 52.3238 246.468 53.2894 246.24C54.2551 246.012 55.1663 245.596 55.9711 245.015C56.7759 244.435 57.4585 243.702 57.9799 242.857C58.5013 242.013 58.8514 241.074 59.0101 240.095C59.0211 240.027 59.0312 239.958 59.0403 239.89Z" fill="#944AFF"/>
<path d="M118.888 243.934C117.45 242.455 116.647 240.474 116.647 238.411C116.648 236.349 117.454 234.368 118.893 232.891C119.19 232.595 119.511 232.324 119.853 232.082L108.018 179.377L126.342 179.679L130.839 234.479C131.736 235.975 132.112 237.725 131.909 239.457C131.707 241.189 130.936 242.805 129.719 244.053C129.019 244.757 128.188 245.315 127.272 245.698C126.356 246.08 125.374 246.278 124.382 246.281C123.39 246.283 122.407 246.091 121.489 245.713C120.571 245.336 119.737 244.782 119.033 244.082C118.984 244.033 118.936 243.984 118.888 243.934Z" fill="#944AFF"/>
<path d="M0.802396 155.706C3.46108 159.251 7.00599 155.254 3.46108 160.359C1.02395 163.868 14.9909 196.765 23.9329 216.918C27.9741 226.037 30.9962 232.551 30.9962 232.551L46.0709 223.821L47.8345 222.802C47.8345 222.802 34.0094 188.009 29.5605 175.504C28.8249 173.431 28.3375 171.968 28.2223 171.383C27.3892 167.227 27.2829 163.664 28.2223 162.344C28.4443 161.852 28.6338 161.346 28.7895 160.828C30.5708 155.609 35.9945 137.982 41.0726 121.312C42.5526 116.42 44.0149 111.616 45.3442 107.229C48.7562 95.9655 51.3174 87.4666 51.3174 87.4666L30.9341 88.3528C30.9341 88.3528 30.5974 88.92 30.0036 89.948C28.5856 92.394 25.6788 97.4366 22.3112 103.498C19.8829 107.859 17.2065 112.759 14.6807 117.581C8.24669 129.846 2.70773 141.659 4.34725 143.299C7.89216 146.844 11.5168 144.832 7.05024 149.378C2.57483 153.934 -1.85629 152.161 0.802396 155.706Z" fill="#F2F2F2"/>
<path d="M25.1753 202.837C30.4927 197.572 29.509 173.582 29.509 173.582C29.509 173.582 24.2182 93.0241 31.3789 87.6269C36.3301 84.0534 41.5987 80.9415 47.1184 78.3304C47.4374 78.1886 47.6058 78.1089 47.6058 78.1089L52.1787 65.2142L80.3519 63.752L85.2705 73.3055C85.2705 73.3055 86.0415 73.3587 87.2467 73.527C91.7488 74.1474 102.33 76.3453 101.391 83.1958C100.203 91.8808 108.587 145.223 111.139 147.89C113.692 150.558 113.018 160.306 106.708 166.501C100.398 172.696 104.936 189.543 109.367 196.633C112.026 200.973 113.254 206.038 112.876 211.114C112.876 211.114 109.367 230.31 100.505 224.106C97.1282 221.74 92.3337 221.439 86.5644 221.873C86.5081 221.877 86.4471 221.884 86.3906 221.889L86.5644 222.759C78.5529 223.353 68.6537 225.364 58.0633 225.249L58.3769 224.359C58.2716 224.358 58.1687 224.364 58.0633 224.363C56.2731 224.345 54.474 224.266 52.6484 224.106C36.8558 222.732 29.8812 227.075 27.834 222.334C25.7869 217.592 19.858 208.101 25.1753 202.837Z" fill="#F2F2F2"/>
<path opacity="0.3" d="M67.3311 65.0538C52.6476 65.0538 40.7443 53.1505 40.7443 38.467C40.7443 23.7835 52.6476 11.8801 67.3311 11.8801C82.0146 11.8801 93.918 23.7835 93.918 38.467C93.918 53.1505 82.0146 65.0538 67.3311 65.0538Z" fill="#944AFF"/>
<path d="M80.119 78.6042C80.119 78.6042 84.1602 92.0217 88.8661 107.504C90.3461 112.378 91.897 117.456 93.4036 122.393C98.3221 138.442 102.806 152.906 103.223 153.482C104.162 154.802 104.047 158.365 103.223 162.521C103.055 163.354 103.436 166.598 104.154 171.251C105.093 177.357 106.608 185.882 108.221 194.585C109.506 201.542 110.853 208.605 112.014 214.623C113.831 223.963 115.187 230.779 115.187 230.779H132.025C132.025 230.779 128.862 160.137 125.317 155.041C121.772 149.937 125.317 153.934 127.975 150.389C130.634 146.844 126.203 148.616 121.736 144.061C117.27 139.515 120.886 141.527 124.43 137.982C125.742 136.67 122.809 128.313 118.59 118.307C116.623 113.663 114.381 108.656 112.165 103.835C107.583 93.8829 103.09 84.7282 101.309 81.1124C101.309 81.1035 101.3 81.0947 101.3 81.0858L100.502 79.4906L80.119 78.6042Z" fill="#F2F2F2"/>
<path d="M43.403 81.892C61.9065 89.0792 78.5429 90.3181 92.1455 81.892V65.9399C76.1253 75.5524 59.8716 75.2895 43.403 65.9399V81.892Z" fill="#3F3D56"/>
<path d="M29.2234 183.808C57.8197 190.995 83.5305 192.234 104.553 183.808V167.856C79.7942 177.469 54.6748 177.206 29.2234 167.856V183.808Z" fill="#3F3D56"/>
<path d="M24.2868 314.5C24.4375 315.564 24.659 319.18 24.916 324.444C35.5932 326.174 46.4436 326.573 57.219 325.631L60.498 309.821C49.4579 311.837 38.1574 311.981 27.0696 310.246C24.5704 311.381 23.5778 309.537 24.2868 314.5Z" fill="#3F3D56"/>
<path d="M81.3865 330.993C90.4731 333.015 99.708 334.301 109.001 334.839L113.636 327.971L114.629 320.27C104.183 320.539 93.7557 319.249 83.6907 316.441C84.5414 320.288 85.1441 322.893 85.1441 322.893L81.3865 330.993Z" fill="#3F3D56"/>
<path d="M86.7503 100.543C87.0694 100.516 87.3884 100.507 87.7164 100.507C91.5744 100.512 95.284 101.995 98.0828 104.65C100.882 107.305 102.557 110.932 102.764 114.784C102.773 115.041 102.782 115.307 102.782 115.573C102.782 115.937 102.773 116.291 102.738 116.646C102.515 119.8 101.304 122.805 99.2775 125.232C97.2507 127.66 94.5109 129.388 91.4467 130.171C88.3825 130.953 85.1496 130.751 82.2068 129.593C79.264 128.435 76.7607 126.379 75.0522 123.718C74.7089 123.192 74.4009 122.644 74.1305 122.078C73.065 119.856 72.5613 117.406 72.6635 114.944C72.7657 112.482 73.4706 110.082 74.7166 107.956C75.9625 105.83 77.7113 104.042 79.8095 102.75C81.9076 101.457 84.291 100.699 86.7503 100.543ZM76.346 123.461C77.736 125.132 79.4729 126.481 81.4363 127.415C83.3996 128.348 85.5425 128.844 87.7164 128.867C90.9534 128.862 94.0777 127.678 96.5049 125.536C98.9321 123.394 100.496 120.442 100.903 117.23C100.975 116.681 101.01 116.127 101.01 115.573C101.011 115.496 101.008 115.419 101.001 115.343C100.94 111.859 99.514 108.538 97.0295 106.095C94.5451 103.652 91.2008 102.282 87.7164 102.28C87.6366 102.492 87.5568 102.696 87.4682 102.891C83.684 111.842 75.4775 111.169 74.4229 115.573C73.9127 117.702 74.2227 119.946 75.2914 121.857C75.5918 122.423 75.9449 122.96 76.346 123.461Z" fill="#944AFF"/>
<path d="M84.7 112.6V121H82.756V117.556H78.94V121H76.996V112.6H78.94V115.912H82.756V112.6H84.7ZM92.4354 119.416V121H86.0874V119.74L89.3274 116.68C89.6714 116.352 89.9034 116.072 90.0234 115.84C90.1434 115.6 90.2034 115.364 90.2034 115.132C90.2034 114.796 90.0874 114.54 89.8554 114.364C89.6314 114.18 89.2994 114.088 88.8594 114.088C88.4914 114.088 88.1594 114.16 87.8634 114.304C87.5674 114.44 87.3194 114.648 87.1194 114.928L85.7034 114.016C86.0314 113.528 86.4834 113.148 87.0594 112.876C87.6354 112.596 88.2954 112.456 89.0394 112.456C89.6634 112.456 90.2074 112.56 90.6714 112.768C91.1434 112.968 91.5074 113.256 91.7634 113.632C92.0274 114 92.1594 114.436 92.1594 114.94C92.1594 115.396 92.0634 115.824 91.8714 116.224C91.6794 116.624 91.3074 117.08 90.7554 117.592L88.8234 119.416H92.4354ZM95.3735 118.084C95.3735 117.668 95.4655 117.324 95.6495 117.052C95.8415 116.78 96.1175 116.48 96.4775 116.152C96.7415 115.912 96.9335 115.712 97.0535 115.552C97.1815 115.384 97.2455 115.196 97.2455 114.988C97.2455 114.692 97.1255 114.46 96.8855 114.292C96.6535 114.116 96.3415 114.028 95.9495 114.028C95.5735 114.028 95.2375 114.108 94.9415 114.268C94.6535 114.42 94.4095 114.636 94.2095 114.916L92.7575 114.064C93.0935 113.552 93.5455 113.156 94.1135 112.876C94.6895 112.596 95.3695 112.456 96.1535 112.456C97.0735 112.456 97.8095 112.652 98.3615 113.044C98.9215 113.436 99.2015 113.98 99.2015 114.676C99.2015 115.004 99.1455 115.292 99.0335 115.54C98.9295 115.788 98.7975 116 98.6375 116.176C98.4855 116.344 98.2855 116.54 98.0375 116.764C97.7415 117.028 97.5255 117.252 97.3895 117.436C97.2535 117.612 97.1855 117.828 97.1855 118.084H95.3735ZM96.2855 121.096C95.9575 121.096 95.6815 120.992 95.4575 120.784C95.2415 120.568 95.1335 120.308 95.1335 120.004C95.1335 119.7 95.2415 119.448 95.4575 119.248C95.6735 119.04 95.9495 118.936 96.2855 118.936C96.6215 118.936 96.8975 119.04 97.1135 119.248C97.3295 119.448 97.4375 119.7 97.4375 120.004C97.4375 120.308 97.3255 120.568 97.1015 120.784C96.8855 120.992 96.6135 121.096 96.2855 121.096Z" fill="#944AFF"/>
</svg>
