<svg width="773" height="532" viewBox="0 0 773 532" fill="none" xmlns="http://www.w3.org/2000/svg">
<g clip-path="url(#clip0_22_2)">
<path d="M106.094 528.4C75.3586 520.401 48.199 502.313 28.969 477.038C9.73889 451.762 -0.448004 420.762 0.0412494 389.006C0.163149 381.094 0.995024 373.016 4.321 365.836C7.64698 358.656 13.8249 352.446 21.5529 350.745C29.9868 348.888 38.8863 352.683 45.1716 358.606C51.4568 364.528 55.5779 372.342 59.3696 380.101C82.2074 426.835 99.5591 476.98 106.056 528.589L106.094 528.4Z" fill="#8032BE"/>
<path d="M17.7268 352.304L33.7328 388.671L49.7388 425.038C54.808 436.555 59.8675 448.078 65.107 459.519C70.3005 470.86 75.6719 482.123 81.4022 493.203C87.1244 504.268 93.206 515.152 99.8073 525.719C100.629 527.034 101.459 528.345 102.298 529.651C102.878 530.555 104.328 529.716 103.744 528.805C97.0157 518.318 90.8164 507.5 85.0021 496.482C79.1814 485.451 73.7412 474.224 68.5019 462.907C63.2346 451.53 58.1699 440.061 53.1186 428.586C47.8017 416.508 42.4857 404.43 37.1706 392.351L21.1645 355.984L19.1727 351.459C18.7395 350.474 17.2963 351.326 17.7268 352.304Z" fill="#8032BE"/>
<path d="M99.4171 528.653C81.3003 532.797 62.3166 530.739 45.5092 522.807C28.7017 514.876 15.0439 501.531 6.72513 484.912C4.65246 480.771 2.9036 476.353 2.69205 471.727C2.4805 467.102 4.01151 462.21 7.56443 459.24C11.4419 455.999 17.0871 455.567 21.9491 456.945C26.811 458.323 31.0601 461.267 35.1232 464.272C59.5967 482.37 82.1429 503.721 99.4481 528.761L99.4171 528.653Z" fill="#944AFF"/>
<path d="M5.99916 461.083L24.127 475.643L42.2548 490.203C47.9959 494.814 53.7334 499.431 59.5424 503.956C65.3004 508.442 71.1296 512.839 77.0961 517.045C83.0541 521.245 89.1498 525.254 95.4296 528.958C96.2116 529.419 96.9964 529.876 97.784 530.327C98.3293 530.64 98.8557 529.813 98.3066 529.498C91.9823 525.869 85.8433 521.926 79.85 517.775C73.8502 513.62 67.9949 509.26 62.2196 504.799C56.4135 500.314 50.6876 495.726 44.9675 491.133C38.9464 486.297 32.9258 481.462 26.9055 476.625L8.77761 462.065L6.5217 460.254C6.03112 459.86 5.5116 460.691 5.99916 461.083Z" fill="#944AFF"/>
<path d="M765.935 0H278.935C277.079 0.00205925 275.299 0.740227 273.987 2.05254C272.675 3.36484 271.937 5.14412 271.935 7V337C271.937 338.856 272.675 340.635 273.987 341.947C275.299 343.26 277.079 343.998 278.935 344H765.935C767.79 343.998 769.57 343.26 770.882 341.947C772.194 340.635 772.933 338.856 772.935 337V7C772.933 5.14412 772.194 3.36484 770.882 2.05254C769.57 0.740227 767.79 0.00205925 765.935 0ZM770.935 337C770.934 338.326 770.407 339.597 769.47 340.535C768.532 341.472 767.26 341.999 765.935 342H278.935C277.609 341.999 276.337 341.472 275.4 340.535C274.462 339.597 273.935 338.326 273.935 337V7C273.935 5.67408 274.462 4.40262 275.4 3.46506C276.337 2.52749 277.609 2.00053 278.935 2H765.935C767.26 2.00053 768.532 2.52749 769.47 3.46506C770.407 4.40262 770.934 5.67408 770.935 7V337Z" fill="#CD51B0"/>
<path d="M771.935 28.04H272.935V30.04H771.935V28.04Z" fill="#CD51B0"/>
<path d="M289.935 21C293.248 21 295.935 18.3137 295.935 15C295.935 11.6863 293.248 9 289.935 9C286.621 9 283.935 11.6863 283.935 15C283.935 18.3137 286.621 21 289.935 21Z" fill="#FC5D55"/>
<path d="M307.185 21C310.498 21 313.185 18.3137 313.185 15C313.185 11.6863 310.498 9 307.185 9C303.871 9 301.185 11.6863 301.185 15C301.185 18.3137 303.871 21 307.185 21Z" fill="#FCBA2C"/>
<path d="M324.435 21C327.748 21 330.435 18.3137 330.435 15C330.435 11.6863 327.748 9 324.435 9C321.121 9 318.435 11.6863 318.435 15C318.435 18.3137 321.121 21 324.435 21Z" fill="#DDDDDE"/>
<path d="M394.803 74.5H310.803C308.946 74.5 307.166 73.7625 305.853 72.4498C304.54 71.137 303.803 69.3565 303.803 67.5C303.803 65.6435 304.54 63.863 305.853 62.5503C307.166 61.2375 308.946 60.5 310.803 60.5H394.803C396.659 60.5 398.44 61.2375 399.753 62.5503C401.065 63.863 401.803 65.6435 401.803 67.5C401.803 69.3565 401.065 71.137 399.753 72.4498C398.44 73.7625 396.659 74.5 394.803 74.5Z" fill="#FF6584"/>
<path d="M509.803 108.5H310.803C308.946 108.5 307.166 107.762 305.853 106.45C304.54 105.137 303.803 103.357 303.803 101.5C303.803 99.6435 304.54 97.863 305.853 96.5502C307.166 95.2375 308.946 94.5 310.803 94.5H509.803C511.659 94.5 513.44 95.2375 514.753 96.5502C516.065 97.863 516.803 99.6435 516.803 101.5C516.803 103.357 516.065 105.137 514.753 106.45C513.44 107.762 511.659 108.5 509.803 108.5Z" fill="#4D178C"/>
<path d="M574.023 122.023C564.648 135.69 559.185 151.658 558.221 168.203C557.257 184.748 560.829 201.242 568.552 215.906C576.276 230.569 587.857 242.845 602.046 251.409C616.235 259.973 632.493 264.499 649.066 264.5V185.06L574.023 122.023Z" fill="#944AFF"/>
<path d="M649.066 82.5C634.287 82.4906 619.729 86.0851 606.652 92.972C593.575 99.859 582.375 109.831 574.022 122.023L649.066 185.06V82.5Z" fill="#FCBA2C"/>
<path d="M649.066 265.5H648.066V81.5H649.066C673.466 81.5 696.867 91.1928 714.12 108.446C731.374 125.7 741.066 149.1 741.066 173.5C741.066 197.9 731.374 221.3 714.12 238.554C696.867 255.807 673.466 265.5 649.066 265.5ZM650.066 83.5054V263.495C673.761 263.231 696.396 253.634 713.058 236.785C729.721 219.936 739.066 197.196 739.066 173.5C739.066 149.804 729.721 127.064 713.058 110.215C696.396 93.3663 673.761 83.7688 650.066 83.5054Z" fill="#F2F2F2" fill-opacity="0.12"/>
<path d="M368.803 303H351.803C350.61 302.999 349.466 302.524 348.622 301.68C347.779 300.837 347.304 299.693 347.303 298.5V249.5C347.304 248.307 347.779 247.163 348.622 246.319C349.466 245.476 350.61 245.001 351.803 245H368.803C369.996 245.001 371.14 245.476 371.983 246.319C372.827 247.163 373.301 248.307 373.303 249.5V298.5C373.301 299.693 372.827 300.837 371.983 301.68C371.14 302.524 369.996 302.999 368.803 303Z" fill="#FCBA2C"/>
<path d="M418.803 303H401.803C400.61 302.999 399.466 302.524 398.622 301.68C397.779 300.837 397.304 299.693 397.303 298.5V226.5C397.304 225.307 397.779 224.163 398.622 223.319C399.466 222.476 400.61 222.001 401.803 222H418.803C419.996 222.001 421.14 222.476 421.983 223.319C422.827 224.163 423.301 225.307 423.303 226.5V298.5C423.301 299.693 422.827 300.837 421.983 301.68C421.14 302.524 419.996 302.999 418.803 303Z" fill="#FF6584"/>
<path d="M468.803 303H451.803C450.61 302.999 449.466 302.524 448.622 301.68C447.779 300.837 447.304 299.693 447.303 298.5V206.5C447.304 205.307 447.779 204.163 448.622 203.319C449.466 202.476 450.61 202.001 451.803 202H468.803C469.996 202.001 471.14 202.476 471.983 203.319C472.827 204.163 473.301 205.307 473.303 206.5V298.5C473.301 299.693 472.827 300.837 471.983 301.68C471.14 302.524 469.996 302.999 468.803 303Z" fill="#944AFF"/>
<path d="M368.803 303.5H351.803C350.477 303.498 349.206 302.971 348.269 302.034C347.332 301.096 346.804 299.826 346.803 298.5V188.5C346.804 187.174 347.332 185.903 348.269 184.966C349.206 184.029 350.477 183.502 351.803 183.5H368.803C370.128 183.502 371.399 184.029 372.337 184.966C373.274 185.903 373.801 187.174 373.803 188.5V298.5C373.801 299.826 373.274 301.096 372.337 302.034C371.399 302.971 370.128 303.498 368.803 303.5ZM351.803 185.5C351.007 185.501 350.245 185.817 349.682 186.38C349.12 186.942 348.804 187.705 348.803 188.5V298.5C348.804 299.295 349.12 300.058 349.682 300.62C350.245 301.183 351.007 301.499 351.803 301.5H368.803C369.598 301.499 370.361 301.183 370.923 300.62C371.486 300.058 371.802 299.295 371.803 298.5V188.5C371.802 187.705 371.486 186.942 370.923 186.38C370.361 185.817 369.598 185.501 368.803 185.5H351.803Z" fill="#FCBA2C"/>
<path d="M418.803 303.5H401.803C400.477 303.498 399.206 302.971 398.269 302.034C397.332 301.096 396.804 299.826 396.803 298.5V188.5C396.804 187.174 397.332 185.903 398.269 184.966C399.206 184.029 400.477 183.502 401.803 183.5H418.803C420.128 183.502 421.399 184.029 422.337 184.966C423.274 185.903 423.801 187.174 423.803 188.5V298.5C423.801 299.826 423.274 301.096 422.337 302.034C421.399 302.971 420.128 303.498 418.803 303.5ZM401.803 185.5C401.007 185.501 400.245 185.817 399.682 186.38C399.12 186.942 398.804 187.705 398.803 188.5V298.5C398.804 299.295 399.12 300.058 399.682 300.62C400.245 301.183 401.007 301.499 401.803 301.5H418.803C419.598 301.499 420.361 301.183 420.923 300.62C421.486 300.058 421.802 299.295 421.803 298.5V188.5C421.802 187.705 421.486 186.942 420.923 186.38C420.361 185.817 419.598 185.501 418.803 185.5H401.803Z" fill="#FF6584"/>
<path d="M468.803 303.5H451.803C450.477 303.498 449.206 302.971 448.269 302.034C447.332 301.096 446.804 299.826 446.803 298.5V188.5C446.804 187.174 447.332 185.903 448.269 184.966C449.206 184.029 450.477 183.502 451.803 183.5H468.803C470.128 183.502 471.399 184.029 472.337 184.966C473.274 185.903 473.801 187.174 473.803 188.5V298.5C473.801 299.826 473.274 301.096 472.337 302.034C471.399 302.971 470.128 303.498 468.803 303.5ZM451.803 185.5C451.007 185.501 450.245 185.817 449.682 186.38C449.12 186.942 448.804 187.705 448.803 188.5V298.5C448.804 299.295 449.12 300.058 449.682 300.62C450.245 301.183 451.007 301.499 451.803 301.5H468.803C469.598 301.499 470.361 301.183 470.923 300.62C471.486 300.058 471.802 299.295 471.803 298.5V188.5C471.802 187.705 471.486 186.942 470.923 186.38C470.361 185.817 469.598 185.501 468.803 185.5H451.803Z" fill="#944AFF"/>
<path d="M112.457 359.003C112.845 357.585 112.918 356.099 112.67 354.65C112.423 353.201 111.86 351.824 111.023 350.616C110.185 349.407 109.093 348.398 107.823 347.657C106.553 346.917 105.136 346.464 103.672 346.33L95.0719 311.646L82.4854 325.299L92.5815 356.143C92.5202 358.617 93.3687 361.028 94.9661 362.919C96.5636 364.809 98.799 366.048 101.249 366.401C103.699 366.753 106.193 366.195 108.258 364.831C110.324 363.468 111.818 361.394 112.457 359.003Z" fill="#FFB8B8"/>
<path d="M89.3997 348.335C88.8163 348.092 88.2907 347.728 87.8569 347.268C87.4232 346.808 87.0911 346.262 86.8823 345.666L72.5262 301.488C68.8169 290.876 69.0882 279.279 73.2898 268.852L87.1282 234.497C87.4394 232.618 88.1179 230.818 89.1251 229.201C90.1322 227.584 91.4482 226.181 92.9978 225.073C94.5474 223.965 96.3002 223.173 98.1561 222.743C100.012 222.313 101.934 222.252 103.813 222.566C105.693 222.879 107.492 223.559 109.108 224.568C110.723 225.577 112.125 226.895 113.231 228.446C114.338 229.996 115.127 231.75 115.556 233.606C115.984 235.463 116.042 237.385 115.727 239.264L96.6343 294.822L103.317 340.06C103.406 340.981 103.21 341.906 102.756 342.712C102.302 343.518 101.611 344.164 100.777 344.564L93.0686 348.243C92.2417 348.637 91.3143 348.769 90.4101 348.623C90.0631 348.567 89.724 348.471 89.3997 348.335Z" fill="#2F2E41"/>
<path d="M160.368 518.443L172.628 518.442L178.46 471.154L160.366 471.155L160.368 518.443Z" fill="#FFB8B8"/>
<path d="M196.272 529.825L157.742 529.827L157.741 514.94L181.385 514.939C185.333 514.939 189.12 516.507 191.912 519.299C194.704 522.091 196.272 525.877 196.272 529.825Z" fill="#2F2E41"/>
<path d="M99.3682 518.443L111.628 518.442L117.46 471.154L99.3662 471.155L99.3682 518.443Z" fill="#FFB8B8"/>
<path d="M135.272 529.825L96.7417 529.827L96.741 514.94L120.385 514.939C124.333 514.939 128.12 516.507 130.912 519.299C133.704 522.091 135.272 525.877 135.272 529.825Z" fill="#2F2E41"/>
<path d="M163.72 325.711L174.497 411.097C175.978 422.836 177.015 434.618 177.606 446.443L180.51 504.511C180.537 505.053 180.454 505.594 180.265 506.102C180.076 506.611 179.787 507.075 179.413 507.468C179.039 507.861 178.59 508.174 178.091 508.387C177.593 508.601 177.057 508.711 176.515 508.711H160.158C159.202 508.711 158.276 508.368 157.551 507.744C156.825 507.121 156.347 506.257 156.204 505.311L141.494 408.398C141.423 407.931 141.189 407.504 140.833 407.193C140.477 406.881 140.023 406.706 139.55 406.698C139.078 406.69 138.618 406.85 138.251 407.149C137.885 407.448 137.637 407.866 137.55 408.331L119.829 503.248C119.653 504.101 119.204 504.874 118.55 505.448C117.895 506.023 117.071 506.368 116.202 506.432L101.148 507.387C100.589 507.428 100.028 507.351 99.5009 507.161C98.9737 506.971 98.4922 506.673 98.0877 506.285C97.6833 505.897 97.3648 505.428 97.153 504.909C96.9413 504.391 96.8409 503.833 96.8584 503.273L101.72 347.711L163.72 325.711Z" fill="#2F2E41"/>
<path d="M115.971 204.091C129.536 204.091 140.532 193.095 140.532 179.53C140.532 165.966 129.536 154.969 115.971 154.969C102.407 154.969 91.4102 165.966 91.4102 179.53C91.4102 193.095 102.407 204.091 115.971 204.091Z" fill="#FFB8B8"/>
<path d="M96.7201 349.711C102.72 363.711 128.72 373.711 134.72 353.711C139.36 338.251 157.74 331.751 165.85 329.601C166.87 329.329 167.741 328.667 168.277 327.758C168.812 326.848 168.968 325.765 168.71 324.741L146.04 235.691C144.72 230.504 142.09 225.742 138.402 221.862C134.715 217.982 130.093 215.114 124.98 213.531C106.96 207.951 87.9603 219.441 84.91 238.051C84.0769 243.269 83.5461 248.532 83.3202 253.811C81.4398 293.101 92.7699 340.491 96.7201 349.711Z" fill="#944AFF"/>
<path d="M178.109 349.685C177.962 348.223 177.496 346.81 176.744 345.547C175.992 344.284 174.972 343.201 173.756 342.375C172.541 341.548 171.158 340.999 169.707 340.764C168.256 340.53 166.771 340.617 165.357 341.018L144.864 311.743L138.026 329.008L158.535 354.161C159.367 356.492 161.025 358.437 163.196 359.627C165.366 360.817 167.897 361.17 170.31 360.618C172.723 360.066 174.85 358.648 176.287 356.634C177.724 354.619 178.373 352.146 178.109 349.685Z" fill="#FFB8B8"/>
<path d="M152.759 348.019C152.127 348.001 151.506 347.851 150.936 347.578C150.366 347.305 149.86 346.915 149.45 346.433L120.173 310.368C112.898 301.799 108.982 290.879 109.155 279.64L109.719 242.607C109.335 240.741 109.322 238.819 109.681 236.948C110.04 235.078 110.765 233.297 111.812 231.707C112.86 230.116 114.211 228.748 115.788 227.68C117.364 226.612 119.136 225.865 121.002 225.482C122.867 225.099 124.79 225.087 126.66 225.448C128.53 225.808 130.311 226.533 131.9 227.582C133.49 228.63 134.858 229.982 135.925 231.559C136.992 233.137 137.738 234.909 138.12 236.775L140.274 295.482L162.772 335.295C163.186 336.122 163.336 337.056 163.201 337.971C163.067 338.886 162.655 339.737 162.021 340.41L156.149 346.614C155.519 347.279 154.702 347.736 153.805 347.924C153.461 347.997 153.11 348.029 152.759 348.019Z" fill="#2F2E41"/>
<path d="M97.3293 199.619C97.8582 199.933 98.4522 200.121 99.0653 200.168C99.6785 200.215 100.294 200.12 100.865 199.891C101.436 199.662 101.946 199.305 102.356 198.847C102.767 198.389 103.067 197.843 103.232 197.251L103.246 197.195C103.692 195.331 103.321 193.384 103.193 191.472C103.066 189.56 103.253 187.459 104.555 186.053C106.983 183.431 111.303 184.821 114.814 184.158C116.87 183.699 118.689 182.507 119.929 180.803C121.17 179.1 121.747 177.003 121.554 174.905C121.504 174.508 121.425 174.11 121.337 173.712C121.118 172.705 121.135 171.66 121.387 170.66C121.639 169.66 122.12 168.732 122.791 167.949C123.462 167.166 124.305 166.549 125.255 166.147C126.205 165.745 127.235 165.568 128.264 165.631C131.812 165.834 135.642 166.909 138.578 164.281C139.654 163.244 140.401 161.914 140.726 160.455C141.051 158.997 140.939 157.475 140.404 156.079C138.728 151.241 133.991 148.708 129.302 147.316C123.504 145.64 117.405 145.278 111.45 146.256C105.494 147.233 99.8308 149.525 94.872 152.965C91.9108 155.053 89.1454 157.675 87.8833 161.071C86.6212 164.467 87.2301 168.751 90.0761 170.993C87.87 173.329 86.3165 176.203 85.5713 179.328C84.8261 182.454 84.9152 185.72 85.8298 188.8C87.2356 193.329 93.9443 197.672 97.3293 199.619Z" fill="#2F2E41"/>
<path d="M276.132 531.441H11.1318C10.8666 531.441 10.6123 531.336 10.4247 531.148C10.2372 530.96 10.1318 530.706 10.1318 530.441C10.1318 530.176 10.2372 529.921 10.4247 529.734C10.6123 529.546 10.8666 529.441 11.1318 529.441H276.132C276.397 529.441 276.651 529.546 276.839 529.734C277.026 529.921 277.132 530.176 277.132 530.441C277.132 530.706 277.026 530.96 276.839 531.148C276.651 531.336 276.397 531.441 276.132 531.441Z" fill="#3F3D56"/>
</g>
<defs>
<clipPath id="clip0_22_2">
<rect width="772.909" height="531.441" fill="white" transform="translate(0.0253906)"/>
</clipPath>
</defs>
</svg>
