<svg width="114" height="25" viewBox="0 0 86 19" fill="none" xmlns="http://www.w3.org/2000/svg">
<path d="M15.475 0.499999V18H13.65V9.925H2.7V18H0.85V0.499999H2.7V8.3H13.65V0.499999H15.475ZM26.1869 18.125C24.9202 18.125 23.7786 17.8417 22.7619 17.275C21.7452 16.6917 20.9452 15.8917 20.3619 14.875C19.7786 13.8583 19.4869 12.7083 19.4869 11.425C19.4869 10.1417 19.7786 8.99167 20.3619 7.975C20.9452 6.95833 21.7452 6.16667 22.7619 5.6C23.7786 5.03333 24.9202 4.75 26.1869 4.75C27.4536 4.75 28.5952 5.03333 29.6119 5.6C30.6286 6.16667 31.4202 6.95833 31.9869 7.975C32.5702 8.99167 32.8619 10.1417 32.8619 11.425C32.8619 12.7083 32.5702 13.8583 31.9869 14.875C31.4202 15.8917 30.6286 16.6917 29.6119 17.275C28.5952 17.8417 27.4536 18.125 26.1869 18.125ZM26.1869 16.55C27.1202 16.55 27.9536 16.3417 28.6869 15.925C29.4369 15.4917 30.0202 14.8833 30.4369 14.1C30.8536 13.3167 31.0619 12.425 31.0619 11.425C31.0619 10.425 30.8536 9.53333 30.4369 8.75C30.0202 7.96667 29.4369 7.36667 28.6869 6.95C27.9536 6.51667 27.1202 6.3 26.1869 6.3C25.2536 6.3 24.4119 6.51667 23.6619 6.95C22.9286 7.36667 22.3452 7.96667 21.9119 8.75C21.4952 9.53333 21.2869 10.425 21.2869 11.425C21.2869 12.425 21.4952 13.3167 21.9119 14.1C22.3452 14.8833 22.9286 15.4917 23.6619 15.925C24.4119 16.3417 25.2536 16.55 26.1869 16.55ZM56.7607 4.85V12.125C56.7607 14.075 56.2941 15.5667 55.3607 16.6C54.4274 17.6167 53.0524 18.125 51.2357 18.125C50.0857 18.125 49.1191 17.9083 48.3357 17.475C47.5691 17.025 46.9774 16.3167 46.5607 15.35C46.1441 16.3 45.5524 17 44.7857 17.45C44.0191 17.9 43.0524 18.125 41.8857 18.125C40.0691 18.125 38.6941 17.6167 37.7607 16.6C36.8274 15.5667 36.3607 14.075 36.3607 12.125V4.85H38.1357V11.975C38.1357 13.525 38.4357 14.675 39.0357 15.425C39.6357 16.1583 40.5857 16.525 41.8857 16.525C43.1691 16.525 44.1191 16.15 44.7357 15.4C45.3691 14.65 45.6857 13.4917 45.6857 11.925V4.85H47.4607V11.925C47.4607 13.4917 47.7691 14.65 48.3857 15.4C49.0024 16.15 49.9607 16.525 51.2607 16.525C52.5274 16.525 53.4607 16.1583 54.0607 15.425C54.6774 14.675 54.9857 13.525 54.9857 11.975V4.85H56.7607ZM72.1631 16.4V18H59.8881V16.725L67.1631 9.6C68.0798 8.7 68.6964 7.925 69.0131 7.275C69.3464 6.60833 69.5131 5.94167 69.5131 5.275C69.5131 4.24167 69.1548 3.44167 68.4381 2.875C67.7381 2.29167 66.7298 2 65.4131 2C63.3631 2 61.7714 2.65 60.6381 3.95L59.3631 2.85C60.0464 2.05 60.9131 1.43333 61.9631 1C63.0298 0.566666 64.2298 0.349999 65.5631 0.349999C67.3464 0.349999 68.7548 0.774999 69.7881 1.625C70.8381 2.45833 71.3631 3.60833 71.3631 5.075C71.3631 5.975 71.1631 6.84167 70.7631 7.675C70.3631 8.50833 69.6048 9.46667 68.4881 10.55L62.5381 16.4H72.1631Z" fill="#C8C2FF"/>
<path d="M78.9971 12.75C78.9971 12.0667 79.1054 11.4667 79.3221 10.95C79.5554 10.4333 79.8387 9.99167 80.1721 9.625C80.5054 9.25833 80.9387 8.84167 81.4721 8.375C82.1887 7.74167 82.7137 7.19167 83.0471 6.725C83.3971 6.24167 83.5721 5.65833 83.5721 4.975C83.5721 4.05833 83.2137 3.325 82.4971 2.775C81.7804 2.20833 80.7971 1.925 79.5471 1.925C77.4804 1.925 75.8887 2.6 74.7721 3.95L73.4471 2.95C74.8637 1.21667 76.9387 0.349999 79.6721 0.349999C81.4221 0.349999 82.8137 0.741666 83.8471 1.525C84.8971 2.30833 85.4221 3.36667 85.4221 4.7C85.4221 5.38333 85.3054 5.99167 85.0721 6.525C84.8554 7.04167 84.5804 7.48333 84.2471 7.85C83.9304 8.21667 83.5054 8.64167 82.9721 9.125C82.2554 9.775 81.7221 10.3583 81.3721 10.875C81.0221 11.375 80.8471 12 80.8471 12.75H78.9971ZM79.9221 18.125C79.5554 18.125 79.2471 18 78.9971 17.75C78.7471 17.4833 78.6221 17.175 78.6221 16.825C78.6221 16.4583 78.7471 16.1583 78.9971 15.925C79.2471 15.675 79.5554 15.55 79.9221 15.55C80.3054 15.55 80.6221 15.675 80.8721 15.925C81.1221 16.1583 81.2471 16.4583 81.2471 16.825C81.2471 17.175 81.1137 17.4833 80.8471 17.75C80.5971 18 80.2887 18.125 79.9221 18.125Z" fill="#944AFF"/>
</svg>
