<svg width="269" height="158" viewBox="0 0 269 158" fill="none" xmlns="http://www.w3.org/2000/svg">
<path d="M134.957 114C59.8169 114 0.957031 100.383 0.957031 82.9999C0.957031 72.578 21.8131 63.2792 58.1771 57.4887C58.3071 57.4673 58.44 57.4718 58.5682 57.502C58.6965 57.5322 58.8175 57.5874 58.9243 57.6645C59.0312 57.7416 59.1217 57.839 59.1908 57.9512C59.2599 58.0634 59.3061 58.1881 59.3268 58.3182C59.3475 58.4483 59.3423 58.5812 59.3115 58.7093C59.2807 58.8374 59.2249 58.9582 59.1473 59.0646C59.0697 59.1711 58.9717 59.2611 58.8592 59.3296C58.7467 59.3981 58.6217 59.4437 58.4915 59.4638C24.2366 64.9189 2.95703 73.9374 2.95703 82.9999C2.95703 98.7196 63.4055 112 134.957 112C206.509 112 266.957 98.7196 266.957 82.9999C266.957 73.8993 245.542 64.8588 211.067 59.4071C210.806 59.3651 210.572 59.2211 210.417 59.0067C210.261 58.7923 210.197 58.5251 210.238 58.2635C210.28 58.002 210.423 57.7675 210.637 57.6116C210.851 57.4556 211.118 57.3909 211.38 57.4316C247.971 63.2182 268.957 72.5376 268.957 82.9999C268.957 100.383 210.097 114 134.957 114Z" fill="#CCCCCC"/>
<path d="M68.4785 119.838C75.277 131.48 85.0136 141.133 96.7141 147.83C108.415 154.527 121.669 158.034 135.15 158C148.632 157.966 161.868 154.392 173.534 147.636C185.201 140.88 194.889 131.179 201.628 119.503C157.285 122.055 112.834 122.167 68.4785 119.838Z" fill="#E6E6E6"/>
<path d="M208.999 98.1228C212.276 86.6314 212.834 74.5349 210.627 62.7908C208.421 51.0466 203.512 39.9772 196.287 30.4586C189.063 20.9399 179.723 13.2333 169.005 7.9487C158.288 2.6641 146.487 -0.0534449 134.538 0.0111344C122.589 0.0757137 110.818 2.92063 100.158 8.32077C89.4986 13.7209 80.2419 21.528 73.1211 31.1242C66.0003 40.7204 61.2108 51.8422 59.1316 63.6095C57.0524 75.3768 57.7405 87.4665 61.1416 98.9219C110.255 105.051 159.955 104.782 208.999 98.1228Z" fill="#E6E6E6"/>
<path d="M150.957 49C155.928 49 159.957 44.9706 159.957 40C159.957 35.0294 155.928 31 150.957 31C145.986 31 141.957 35.0294 141.957 40C141.957 44.9706 145.986 49 150.957 49Z" fill="white"/>
<path d="M134.957 148C139.928 148 143.957 143.971 143.957 139C143.957 134.029 139.928 130 134.957 130C129.986 130 125.957 134.029 125.957 139C125.957 143.971 129.986 148 134.957 148Z" fill="white"/>
<path d="M105.957 86C114.241 86 120.957 79.2843 120.957 71C120.957 62.7157 114.241 56 105.957 56C97.6728 56 90.957 62.7157 90.957 71C90.957 79.2843 97.6728 86 105.957 86Z" fill="white"/>
</svg>
